<svg xmlns="http://www.w3.org/2000/svg" viewBox="0 0 100 100">
  <defs>
    <radialGradient id="appleGrad" cx="40%" cy="35%" r="55%">
      <stop offset="0%" stop-color="#ff4444"/>
      <stop offset="50%" stop-color="#cc1111"/>
      <stop offset="100%" stop-color="#8b0000"/>
    </radialGradient>
    <radialGradient id="appleShine" cx="30%" cy="25%" r="25%">
      <stop offset="0%" stop-color="#ffffff" stop-opacity="0.45"/>
      <stop offset="100%" stop-color="#ffffff" stop-opacity="0"/>
    </radialGradient>
  </defs>
  <path d="M50 18 C25 18 8 40 8 60 C8 82 25 95 38 95 C44 95 47 90 50 90 C53 90 56 95 62 95 C75 95 92 82 92 60 C92 40 75 18 50 18Z" fill="url(#appleGrad)"/>
  <path d="M50 18 C25 18 8 40 8 60 C8 82 25 95 38 95 C44 95 47 90 50 90 C53 90 56 95 62 95 C75 95 92 82 92 60 C92 40 75 18 50 18Z" fill="url(#appleShine)"/>
  <path d="M50 18 Q52 8 56 3" stroke="#5a3a1a" stroke-width="3" fill="none" stroke-linecap="round"/>
  <path d="M56 5 Q65 8 68 15" fill="#4aad2b" stroke="#3a8c1e" stroke-width="0.5"/>
  <ellipse cx="50" cy="18" rx="4" ry="2" fill="#8b0000" opacity="0.3"/>
</svg>
