<svg xmlns="http://www.w3.org/2000/svg" viewBox="0 0 100 100">
  <defs>
    <linearGradient id="bananaGrad" x1="0%" y1="0%" x2="100%" y2="100%">
      <stop offset="0%" stop-color="#ffe44d"/>
      <stop offset="40%" stop-color="#ffd700"/>
      <stop offset="100%" stop-color="#ccaa00"/>
    </linearGradient>
    <linearGradient id="bananaShine" x1="20%" y1="0%" x2="50%" y2="50%">
      <stop offset="0%" stop-color="#ffffff" stop-opacity="0.35"/>
      <stop offset="100%" stop-color="#ffffff" stop-opacity="0"/>
    </linearGradient>
  </defs>
  <path d="M75 15 Q85 25 88 45 Q90 65 78 80 Q65 92 50 88 Q42 86 40 78 Q38 70 42 60 Q48 42 58 28 Q65 18 75 15Z" fill="url(#bananaGrad)" stroke="#b8960a" stroke-width="1"/>
  <path d="M75 15 Q85 25 88 45 Q90 65 78 80 Q65 92 50 88 Q42 86 40 78 Q38 70 42 60 Q48 42 58 28 Q65 18 75 15Z" fill="url(#bananaShine)"/>
  <path d="M75 15 Q72 10 68 8" stroke="#6b5a10" stroke-width="3" fill="none" stroke-linecap="round"/>
  <path d="M50 88 Q48 92 45 94" stroke="#6b5a10" stroke-width="2" fill="none" stroke-linecap="round"/>
</svg>
