<svg xmlns="http://www.w3.org/2000/svg" viewBox="0 0 100 100">
  <defs>
    <radialGradient id="gr" cx="40%" cy="38%" r="55%">
      <stop offset="0%" stop-color="#9c6fd6"/>
      <stop offset="70%" stop-color="#6a1fbf"/>
      <stop offset="100%" stop-color="#3d0e82"/>
    </radialGradient>
    <radialGradient id="gShine" cx="30%" cy="26%" r="28%">
      <stop offset="0%" stop-color="#ffffff" stop-opacity="0.4"/>
      <stop offset="100%" stop-color="#ffffff" stop-opacity="0"/>
    </radialGradient>
  </defs>
  <!-- Cluster of grapes -->
  <circle cx="50" cy="76" r="14" fill="url(#gr)"/>
  <circle cx="36" cy="64" r="14" fill="url(#gr)"/>
  <circle cx="64" cy="64" r="14" fill="url(#gr)"/>
  <circle cx="50" cy="52" r="14" fill="url(#gr)"/>
  <circle cx="30" cy="50" r="12" fill="url(#gr)"/>
  <circle cx="70" cy="50" r="12" fill="url(#gr)"/>
  <circle cx="44" cy="38" r="11" fill="url(#gr)"/>
  <circle cx="56" cy="38" r="11" fill="url(#gr)"/>
  <!-- Stem -->
  <line x1="50" y1="27" x2="50" y2="18" stroke="#5a3a1a" stroke-width="3" stroke-linecap="round"/>
  <!-- Tendrils + leaf -->
  <path d="M50 20 Q60 10 68 14 Q60 18 54 24Z" fill="#66bb6a"/>
  <path d="M50 20 Q40 10 32 14 Q40 18 46 24Z" fill="#4caf50"/>
  <!-- Shines on grapes -->
  <circle cx="50" cy="76" r="14" fill="url(#gShine)"/>
  <circle cx="36" cy="64" r="14" fill="url(#gShine)"/>
  <circle cx="64" cy="64" r="14" fill="url(#gShine)"/>
</svg>
