<svg xmlns="http://www.w3.org/2000/svg" viewBox="0 0 100 100">
  <defs>
    <radialGradient id="kwh" cx="50%" cy="50%" r="50%">
      <stop offset="0%" stop-color="#d4f0a0"/>
      <stop offset="50%" stop-color="#7abf20"/>
      <stop offset="100%" stop-color="#3a7a00"/>
    </radialGradient>
  </defs>
  <ellipse cx="50" cy="52" rx="38" ry="44" fill="#7a5c30"/>
  <ellipse cx="50" cy="52" rx="34" ry="40" fill="url(#kwh)"/>
  <ellipse cx="50" cy="52" rx="9" ry="9" fill="#f5f5dc"/>
  <ellipse cx="50" cy="36" rx="2.5" ry="4" fill="#2e1a00"/>
  <ellipse cx="61" cy="40" rx="2.5" ry="4" fill="#2e1a00" transform="rotate(35 61 40)"/>
  <ellipse cx="66" cy="52" rx="2.5" ry="4" fill="#2e1a00" transform="rotate(90 66 52)"/>
  <ellipse cx="61" cy="64" rx="2.5" ry="4" fill="#2e1a00" transform="rotate(145 61 64)"/>
  <ellipse cx="50" cy="68" rx="2.5" ry="4" fill="#2e1a00"/>
  <ellipse cx="39" cy="64" rx="2.5" ry="4" fill="#2e1a00" transform="rotate(-145 39 64)"/>
  <ellipse cx="34" cy="52" rx="2.5" ry="4" fill="#2e1a00" transform="rotate(90 34 52)"/>
  <ellipse cx="39" cy="40" rx="2.5" ry="4" fill="#2e1a00" transform="rotate(-35 39 40)"/>
</svg>
