<svg xmlns="http://www.w3.org/2000/svg" viewBox="0 0 100 100">
  <defs>
    <radialGradient id="mg" cx="38%" cy="35%" r="55%">
      <stop offset="0%" stop-color="#ffe066"/>
      <stop offset="50%" stop-color="#ff9800"/>
      <stop offset="100%" stop-color="#c85a00"/>
    </radialGradient>
    <radialGradient id="mgBlush" cx="65%" cy="40%" r="38%">
      <stop offset="0%" stop-color="#ff4a6a" stop-opacity="0.45"/>
      <stop offset="100%" stop-color="#ff4a6a" stop-opacity="0"/>
    </radialGradient>
    <radialGradient id="mgShine" cx="30%" cy="26%" r="28%">
      <stop offset="0%" stop-color="#ffffff" stop-opacity="0.4"/>
      <stop offset="100%" stop-color="#ffffff" stop-opacity="0"/>
    </radialGradient>
  </defs>
  <!-- Oval/kidney body -->
  <path d="M50 88 C22 88 14 64 18 46 C22 26 34 14 50 14 C70 12 84 28 84 52 C84 72 72 88 50 88Z" fill="url(#mg)"/>
  <!-- Blush -->
  <ellipse cx="50" cy="50" rx="34" ry="38" fill="url(#mgBlush)"/>
  <!-- Stem -->
  <line x1="50" y1="10" x2="50" y2="18" stroke="#5a3a1a" stroke-width="3" stroke-linecap="round"/>
  <!-- Leaf -->
  <path d="M50 14 Q64 6 70 12 Q62 18 52 18Z" fill="#388e3c"/>
  <!-- Beak nib -->
  <path d="M84 52 Q90 44 88 38 Q84 44 82 50Z" fill="#c85a00"/>
  <!-- Shine -->
  <ellipse cx="50" cy="52" rx="34" ry="38" fill="url(#mgShine)"/>
</svg>
