<svg xmlns="http://www.w3.org/2000/svg" viewBox="0 0 100 100">
  <defs>
    <radialGradient id="pe" cx="40%" cy="35%" r="55%">
      <stop offset="0%" stop-color="#ffcba4"/>
      <stop offset="55%" stop-color="#f8975a"/>
      <stop offset="100%" stop-color="#d45a10"/>
    </radialGradient>
    <radialGradient id="peBlush" cx="70%" cy="50%" r="40%">
      <stop offset="0%" stop-color="#e8386b" stop-opacity="0.4"/>
      <stop offset="100%" stop-color="#e8386b" stop-opacity="0"/>
    </radialGradient>
    <radialGradient id="peShine" cx="30%" cy="26%" r="28%">
      <stop offset="0%" stop-color="#ffffff" stop-opacity="0.4"/>
      <stop offset="100%" stop-color="#ffffff" stop-opacity="0"/>
    </radialGradient>
  </defs>
  <!-- Fruit body -->
  <path d="M50 90 C20 90 12 68 14 50 C16 30 30 14 50 14 C70 14 84 30 86 50 C88 68 80 90 50 90Z" fill="url(#pe)"/>
  <!-- Top cleft -->
  <path d="M50 14 Q48 8 50 4 Q52 8 50 14Z" fill="#c8703a"/>
  <!-- Blush -->
  <ellipse cx="50" cy="52" rx="34" ry="38" fill="url(#peBlush)"/>
  <!-- Stem  -->
  <line x1="50" y1="8" x2="50" y2="16" stroke="#5a3a1a" stroke-width="3" stroke-linecap="round"/>
  <!-- Leaf -->
  <path d="M50 12 Q62 4 68 10 Q60 16 52 16Z" fill="#66bb6a"/>
  <!-- Shine -->
  <ellipse cx="50" cy="52" rx="34" ry="38" fill="url(#peShine)"/>
</svg>
