<svg xmlns="http://www.w3.org/2000/svg" viewBox="0 0 100 100">
  <defs>
    <radialGradient id="st" cx="40%" cy="35%" r="55%">
      <stop offset="0%" stop-color="#ff6b8a"/>
      <stop offset="70%" stop-color="#e8143c"/>
      <stop offset="100%" stop-color="#a00a28"/>
    </radialGradient>
    <radialGradient id="stShine" cx="30%" cy="25%" r="28%">
      <stop offset="0%" stop-color="#ffffff" stop-opacity="0.4"/>
      <stop offset="100%" stop-color="#ffffff" stop-opacity="0"/>
    </radialGradient>
  </defs>
  <!-- Body -->
  <path d="M50 88 C24 88 14 66 18 46 C22 26 36 16 50 16 C64 16 78 26 82 46 C86 66 76 88 50 88Z" fill="url(#st)"/>
  <!-- Seeds -->
  <ellipse cx="38" cy="55" rx="3" ry="5" fill="#7a0010" opacity="0.8" transform="rotate(-15 38 55)"/>
  <ellipse cx="50" cy="60" rx="3" ry="5" fill="#7a0010" opacity="0.8"/>
  <ellipse cx="62" cy="55" rx="3" ry="5" fill="#7a0010" opacity="0.8" transform="rotate(15 62 55)"/>
  <ellipse cx="44" cy="72" rx="3" ry="5" fill="#7a0010" opacity="0.8" transform="rotate(-8 44 72)"/>
  <ellipse cx="56" cy="72" rx="3" ry="5" fill="#7a0010" opacity="0.8" transform="rotate(8 56 72)"/>
  <!-- Cap leaves -->
  <path d="M44 18 Q38 4 30 8 Q36 12 40 20Z" fill="#4caf50"/>
  <path d="M50 14 Q50 0 50 0 Q50 6 52 18Z" fill="#388e3c"/>
  <path d="M56 18 Q62 4 70 8 Q64 12 60 20Z" fill="#4caf50"/>
  <!-- Shine -->
  <ellipse cx="50" cy="52" rx="32" ry="36" fill="url(#stShine)"/>
</svg>
